<?xml version="1.0" encoding="UTF-8"?>
<svg xmlns="http://www.w3.org/2000/svg" xmlns:xlink="http://www.w3.org/1999/xlink" width="118.4307" height="128.252131" viewBox="0 0 118.4307 128.252131" version="1.1">
<defs>
<filter id="alpha" filterUnits="objectBoundingBox" x="0%" y="0%" width="100%" height="100%">
  <feColorMatrix type="matrix" in="SourceGraphic" values="0 0 0 0 1 0 0 0 0 1 0 0 0 0 1 0 0 0 1 0"/>
</filter>
<mask id="mask0">
  <g filter="url(#alpha)">
<rect x="0" y="0" width="118.4307" height="128.252131" style="fill:rgb(0%,0%,0%);fill-opacity:0.787781;stroke:none;"/>
  </g>
</mask>
<radialGradient id="radial0" gradientUnits="userSpaceOnUse" cx="6.31967" cy="26.947735" fx="6.31967" fy="26.947735" r="14.763328" gradientTransform="matrix(0.0558416,5.074963,-4.788891,0.054679,187.438898,23.953874)">
<stop offset="0" style="stop-color:rgb(0%,0%,0%);stop-opacity:1;"/>
<stop offset="0.843578" style="stop-color:rgb(0%,0%,0%);stop-opacity:0.411765;"/>
<stop offset="1" style="stop-color:rgb(0%,0%,0%);stop-opacity:0;"/>
</radialGradient>
<clipPath id="clip1">
  <rect x="0" y="0" width="119" height="129"/>
</clipPath>
<g id="surface5" clip-path="url(#clip1)">
<path style=" stroke:none;fill-rule:nonzero;fill:url(#radial0);" d="M 118.429688 66.785156 C 118.429688 100.734375 92.726562 128.253906 61.019531 128.253906 C 29.316406 128.253906 3.613281 100.734375 3.613281 66.785156 C 3.613281 32.839844 29.316406 5.320312 61.019531 5.320312 C 92.726562 5.320312 118.429688 32.839844 118.429688 66.785156 Z M 118.429688 66.785156 "/>
</g>
<mask id="mask1">
  <g filter="url(#alpha)">
<rect x="0" y="0" width="118.4307" height="128.252131" style="fill:rgb(0%,0%,0%);fill-opacity:0.787781;stroke:none;"/>
  </g>
</mask>
<clipPath id="clip2">
  <rect x="0" y="0" width="119" height="129"/>
</clipPath>
<g id="surface8" clip-path="url(#clip2)">
<path style=" stroke:none;fill-rule:nonzero;fill:rgb(100%,100%,100%);fill-opacity:0.00392157;" d="M 0 0 L 118.429688 0 L 118.429688 128.253906 L 0 128.253906 Z M 0 0 "/>
</g>
</defs>
<g id="surface1">
<use xlink:href="#surface5" mask="url(#mask0)"/>
<use xlink:href="#surface8" mask="url(#mask1)"/>
</g>
</svg>
